<svg width="34" height="34" viewBox="0 0 34 34" fill="none" xmlns="http://www.w3.org/2000/svg">
<g filter="url(#filter0_d_525_96)">
<path d="M13.8902 12.9646C14.4994 12.9646 14.9933 12.4707 14.9933 11.8615C14.9933 11.2523 14.4994 10.7584 13.8902 10.7584C13.281 10.7584 12.7871 11.2523 12.7871 11.8615C12.7871 12.4707 13.281 12.9646 13.8902 12.9646Z" fill="#FF9F1C"/>
<path d="M8.37786 18.6726C7.54396 18.0577 5.73101 18.2372 5.10294 16.981C4.22154 17.4217 2.9918 15.7803 3.48528 15.0203C2.92319 14.5321 2.58012 13.1335 3.48528 12.6453C2.88888 11.7876 2.64346 9.79259 4.33501 8.96924C6.02657 8.1459 7.44632 9.49703 7.78938 10.4893C8.72092 10.0486 9.65247 11.149 9.69997 11.909C10.6078 11.9592 11.1699 13.9436 10.2884 14.3843C10.9007 15.6325 9.69997 16.981 9.67622 18.034C9.68218 18.187 9.64363 18.3385 9.56523 18.47C9.48684 18.6016 9.37198 18.7076 9.23456 18.7752C9.09714 18.8428 8.94306 18.8691 8.79101 18.8509C8.63895 18.8326 8.49544 18.7707 8.37786 18.6726V18.6726Z" fill="#95AE45"/>
<path d="M10.483 20.7547C12.4724 20.7547 14.0851 19.142 14.0851 17.1526C14.0851 15.1631 12.4724 13.5504 10.483 13.5504C8.49359 13.5504 6.88086 15.1631 6.88086 17.1526C6.88086 19.142 8.49359 20.7547 10.483 20.7547Z" fill="#C32F27"/>
<path d="M13.6449 17.9363C13.7927 16.9573 12.8374 15.4874 13.6212 14.3843C12.8612 13.8565 13.6924 12.0568 14.5501 12.1307C14.7216 11.4446 15.7508 10.513 16.561 11.0751C17.0254 10.1911 18.5929 9.11437 20.0628 10.1436C21.5327 11.1727 20.9944 13.0464 20.3082 13.7431C21.0999 14.3315 20.5721 15.6061 19.9652 15.9994C20.332 16.791 18.9096 18.1554 18.1179 17.6144C17.3262 18.6937 15.6426 18.2767 14.7612 18.7175C14.6316 18.7881 14.4848 18.821 14.3375 18.8126C14.1901 18.8042 14.0481 18.7548 13.9273 18.67C13.8121 18.59 13.7236 18.4774 13.6733 18.3466C13.6229 18.2158 13.6131 18.0728 13.6449 17.9363V17.9363Z" fill="#95AE45"/>
<path d="M23.8398 15.7803C25.951 14.3342 28.9858 11.7375 28.4949 10.4629C28.0041 9.18828 26.9511 9.36245 26.4867 10.4893C26.0222 11.6161 25.381 14.3843 23.8398 15.7803Z" fill="#AAC348"/>
<path d="M23.2246 16.1736C25.0877 14.3606 27.2912 14.2603 29.595 15.242C31.8988 16.2237 31.2364 13.8196 29.7164 13.4291C28.4682 13.086 26.1406 12.6954 23.2246 16.1736Z" fill="#C7E554"/>
<path d="M23.7383 16.5878C25.2082 14.4318 24.9152 12.2521 23.543 10.17C22.1707 8.08783 24.6434 8.30687 25.3058 9.72925C25.8441 10.8798 26.6543 13.1097 23.7383 16.5878Z" fill="#95AE45"/>
<path d="M20.1608 25.3834C21.6086 24.0792 22.968 22.6802 24.23 21.1954C27.8797 16.8333 26.4573 15.9176 24.866 14.5796C23.2747 13.2417 22.1215 11.9829 18.4719 16.3688C16.9193 18.2558 15.5181 20.2623 14.2812 22.3697L20.1608 25.3834Z" fill="#FF9F1C"/>
<path d="M28.5143 18.451C28.1475 22.7867 25.7699 28.6663 17.0007 28.6663C8.2315 28.6663 5.85383 22.7867 5.48438 18.451H28.5143Z" fill="#FCFCFC"/>
<path d="M10.1396 30.9938C10.1396 29.45 11.1688 28.054 11.723 27.8086H22.2682C22.8303 28.054 23.8515 29.45 23.8515 30.9938H10.1396Z" fill="#FCFCFC"/>
<path d="M15.3843 5.02667C15.9935 5.02667 16.4874 4.53281 16.4874 3.9236C16.4874 3.31439 15.9935 2.82053 15.3843 2.82053C14.7751 2.82053 14.2812 3.31439 14.2812 3.9236C14.2812 4.53281 14.7751 5.02667 15.3843 5.02667Z" fill="#FF9F1C"/>
<path d="M10.5093 7.57324C11.1185 7.57324 11.6124 7.07938 11.6124 6.47017C11.6124 5.86096 11.1185 5.3671 10.5093 5.3671C9.90011 5.3671 9.40625 5.86096 9.40625 6.47017C9.40625 7.07938 9.90011 7.57324 10.5093 7.57324Z" fill="#FF9F1C"/>
<path d="M21.6304 7.1088C22.2396 7.1088 22.7335 6.61493 22.7335 6.00572C22.7335 5.39651 22.2396 4.90265 21.6304 4.90265C21.0212 4.90265 20.5273 5.39651 20.5273 6.00572C20.5273 6.61493 21.0212 7.1088 21.6304 7.1088Z" fill="#FF9F1C"/>
<path d="M31.4917 14.6773C31.3827 14.2786 31.1715 13.9153 30.8789 13.6232C30.5864 13.3312 30.2228 13.1205 29.8239 13.0121C29.2235 12.8424 28.6002 12.7676 27.9767 12.7904C28.7367 11.8853 29.1774 11.0039 28.9082 10.2914C28.6391 9.57884 28.1165 9.16453 27.5597 9.14078C27.0029 9.11703 26.3854 9.58148 26.0898 10.3204C26.0661 10.3679 26.0661 10.3943 26.0423 10.4418C25.9421 10.1488 25.8207 9.82954 25.6993 9.56037C25.5223 9.18578 25.2504 8.864 24.9106 8.62698C24.5708 8.38996 24.175 8.24594 23.7623 8.20923C23.5754 8.19032 23.3869 8.22404 23.2181 8.30657C23.0493 8.38911 22.9069 8.51717 22.807 8.67632C22.5616 9.09328 22.6856 9.67912 23.1501 10.4154C23.212 10.5095 23.3088 10.5752 23.4192 10.598C23.5295 10.6207 23.6444 10.5987 23.7386 10.5368C23.8327 10.4748 23.8984 10.378 23.9211 10.2677C23.9439 10.1573 23.9219 10.0424 23.8599 9.94829C23.4931 9.3862 23.5169 9.14078 23.5433 9.11703C23.6348 9.07056 23.741 9.06203 23.8388 9.09328C24.0684 9.145 24.2839 9.24618 24.4703 9.38975C24.6567 9.53332 24.8095 9.71582 24.9182 9.92454C25.2914 10.6754 25.452 11.5141 25.3826 12.3497C25.2994 12.5929 25.2016 12.8308 25.0897 13.0622C25.0407 12.6274 24.9415 12.1997 24.7941 11.7876C24.7574 11.6828 24.681 11.5965 24.5814 11.5473C24.4818 11.4981 24.3668 11.4899 24.2612 11.5244C24.1556 11.5589 24.0677 11.6334 24.0164 11.732C23.9651 11.8305 23.9544 11.9452 23.9866 12.0515C24.1477 12.5337 24.2366 13.037 24.2505 13.5452C23.7227 13.1546 23.0999 12.8353 22.3637 12.9092C21.9233 12.9608 21.4984 13.1027 21.1155 13.3261C21.3538 12.8221 21.4548 12.2641 21.4084 11.7085C21.3241 11.0032 20.9664 10.3592 20.4122 9.91504C19.858 9.47087 19.1515 9.26201 18.4449 9.33342C18.3549 9.33695 18.266 9.35385 18.181 9.38356C17.4831 9.56355 16.8638 9.9678 16.4182 10.5341C16.0955 10.4398 15.7504 10.4575 15.4391 10.5843C15.2819 10.646 15.1337 10.7285 14.9984 10.8297C14.7216 10.5462 14.3454 10.3813 13.9493 10.3698C13.5532 10.3584 13.1681 10.5013 12.8754 10.7683C12.5826 11.0354 12.4051 11.4058 12.3802 11.8013C12.3554 12.1967 12.4851 12.5864 12.7421 12.8881C12.8107 12.959 12.8848 13.0243 12.9638 13.0833C12.8717 13.3502 12.8384 13.6337 12.8661 13.9146C12.344 13.5294 11.7397 13.2701 11.1007 13.1572C11.0031 12.4447 10.6125 11.7586 10.024 11.5396C9.85141 10.9687 9.47597 10.4806 8.96844 10.1673C8.66735 9.98349 8.31349 9.90547 7.96301 9.94565C7.84456 9.72252 7.6963 9.51656 7.52231 9.33342C7.44627 9.2496 7.3406 9.19868 7.22767 9.19144C7.11474 9.1842 7.00342 9.22121 6.91731 9.29463C6.8312 9.36805 6.77705 9.47211 6.76634 9.58477C6.75563 9.69742 6.7892 9.80982 6.85994 9.89815C7.05776 10.0991 7.20831 10.3416 7.30064 10.608C7.33838 10.714 7.41615 10.801 7.51728 10.8504C7.61841 10.8997 7.73485 10.9074 7.84162 10.8719C7.94465 10.8195 8.05942 10.7944 8.17493 10.799C8.29044 10.8036 8.40283 10.8378 8.50135 10.8983C8.68139 11.0059 8.83595 11.1513 8.9544 11.3244C9.07285 11.4976 9.15236 11.6943 9.18747 11.9011C9.19317 12.0056 9.23726 12.1044 9.31129 12.1784C9.38531 12.2524 9.48406 12.2965 9.58859 12.3022C9.80762 12.326 10.0768 12.669 10.1771 13.1097C9.19058 13.1522 8.25772 13.5704 7.56981 14.2788C7.5307 14.3142 7.49692 14.3551 7.46953 14.4002L7.07897 13.6402C7.14488 13.1805 7.30285 12.7389 7.54342 12.3418C7.57813 12.2977 7.60327 12.2468 7.61722 12.1925C7.63117 12.1381 7.63363 12.0814 7.62444 12.026C7.61526 11.9706 7.59462 11.9178 7.56386 11.8708C7.5331 11.8239 7.49288 11.7839 7.44578 11.7533C7.35421 11.6893 7.2411 11.6639 7.13096 11.6827C7.02081 11.7015 6.9225 11.7629 6.8573 11.8536C6.73159 12.0633 6.62558 12.2841 6.54062 12.5133L5.8545 11.1675C5.83357 11.1123 5.80132 11.0622 5.75982 11.0203C5.71833 10.9783 5.66851 10.9456 5.61358 10.9241C5.55864 10.9026 5.49982 10.8928 5.44089 10.8955C5.38197 10.8981 5.32424 10.9131 5.27145 10.9394C5.21865 10.9657 5.17195 11.0028 5.13436 11.0482C5.09677 11.0937 5.06912 11.1465 5.0532 11.2033C5.03727 11.2601 5.03342 11.3196 5.0419 11.378C5.05037 11.4363 5.07098 11.4923 5.10241 11.5422L5.78853 12.8907C5.55048 12.8136 5.30243 12.7718 5.05227 12.7667H5.0206C4.91208 12.7716 4.80946 12.8175 4.73334 12.8949C4.65722 12.9724 4.61324 13.0759 4.61023 13.1845C4.60722 13.293 4.64541 13.3988 4.71713 13.4803C4.78884 13.5619 4.88877 13.6134 4.99685 13.6243C5.45932 13.6775 5.90726 13.8191 6.31631 14.0413L6.94966 15.1919C6.89979 15.2752 6.85909 15.3637 6.82827 15.4557C6.21604 15.2605 5.6513 15.1391 5.47977 15.0889C5.42336 15.0763 5.36497 15.0752 5.30813 15.0858C5.25129 15.0963 5.19718 15.1183 5.14908 15.1504C5.10098 15.1824 5.05988 15.2239 5.02827 15.2723C4.99666 15.3207 4.9752 15.3751 4.96518 15.432C4.95102 15.4876 4.94807 15.5455 4.95651 15.6023C4.96494 15.6591 4.98459 15.7136 5.01431 15.7628C5.04402 15.8119 5.08322 15.8546 5.1296 15.8884C5.17599 15.9222 5.22864 15.9465 5.28449 15.9598C5.50616 16.0099 6.02075 16.1313 6.53535 16.3028C6.43596 16.7201 6.41095 17.1515 6.46146 17.5774C6.03609 17.4544 5.67543 17.1704 5.45602 16.7858C5.43257 16.7355 5.39932 16.6903 5.3582 16.6531C5.31709 16.6158 5.26894 16.5871 5.21659 16.5686C5.16423 16.5502 5.10873 16.5424 5.05332 16.5457C4.99791 16.549 4.94373 16.5633 4.89393 16.5878C4.67226 16.6881 4.37934 16.4902 4.15767 16.2448C3.81461 15.8542 3.71697 15.4135 3.81461 15.242C3.87499 15.1556 3.90089 15.0498 3.88722 14.9453C3.87354 14.8408 3.82129 14.7452 3.74072 14.6773C3.59605 14.5253 3.48618 14.3437 3.41873 14.145C3.35129 13.9463 3.32789 13.7353 3.35015 13.5267C3.34941 13.4199 3.3787 13.315 3.4347 13.224C3.49069 13.133 3.57112 13.0596 3.66683 13.0121C3.72189 12.9868 3.7705 12.9493 3.809 12.9025C3.84751 12.8556 3.8749 12.8007 3.88912 12.7418C3.90334 12.6829 3.90403 12.6215 3.89112 12.5623C3.87821 12.503 3.85205 12.4475 3.81461 12.3999C3.64529 12.124 3.53204 11.8174 3.48132 11.4977C3.43061 11.1781 3.44343 10.8515 3.51905 10.5368C3.58557 10.2777 3.70757 10.0361 3.87661 9.82882C4.04565 9.6215 4.2577 9.45338 4.49809 9.33606C4.8606 9.15029 5.27197 9.08203 5.67505 9.14078C5.72981 9.15031 5.7859 9.14896 5.84014 9.13681C5.89437 9.12466 5.94568 9.10195 5.99114 9.06997C6.03659 9.03799 6.07531 8.99737 6.10507 8.95043C6.13482 8.90349 6.15505 8.85115 6.16458 8.7964C6.17411 8.74164 6.17276 8.68554 6.16061 8.63131C6.14846 8.57708 6.12575 8.52577 6.09377 8.48031C6.06179 8.43485 6.02117 8.39614 5.97423 8.36638C5.92729 8.33663 5.87495 8.3164 5.8202 8.30687C5.23492 8.20908 4.63371 8.30157 4.10489 8.57077C3.75303 8.74084 3.44238 8.98541 3.19449 9.28753C2.9466 9.58965 2.76739 9.94208 2.66931 10.3204C2.49674 11.0589 2.57377 11.8338 2.88834 12.5239C2.63783 12.7711 2.48667 13.1016 2.46347 13.4528C2.411 14.0474 2.58018 14.6405 2.93848 15.118C2.7907 15.7064 3.08626 16.3688 3.46627 16.8333C3.84627 17.2977 4.38462 17.5431 4.83851 17.4956C5.00547 17.7198 5.21317 17.9105 5.45074 18.0577H5.4745C5.35922 18.0612 5.24981 18.1094 5.1695 18.1922C5.08919 18.2749 5.0443 18.3857 5.04435 18.5011C5.16339 20.1376 5.57826 21.739 6.26881 23.2274C6.2916 23.2794 6.32463 23.3262 6.36593 23.3651C6.40722 23.404 6.45594 23.4342 6.50916 23.4539C6.56238 23.4735 6.61902 23.4823 6.67569 23.4795C6.73237 23.4768 6.78791 23.4627 6.83901 23.4381C6.89011 23.4134 6.93571 23.3787 6.9731 23.336C7.01048 23.2933 7.03888 23.2436 7.0566 23.1897C7.07432 23.1357 7.08099 23.0788 7.07622 23.0223C7.07145 22.9658 7.05533 22.9108 7.02883 22.8606C6.44675 21.6244 6.07399 20.3001 5.92575 18.9418H28.0004C27.7075 21.5385 26.4778 25.6526 22.0232 27.418H11.9293C10.9249 27.0262 9.99626 26.4628 9.18484 25.7529C9.14308 25.7142 9.09412 25.6842 9.04075 25.6645C8.98738 25.6447 8.93065 25.6357 8.8738 25.6379C8.81695 25.6401 8.76109 25.6535 8.70941 25.6773C8.65773 25.7011 8.61124 25.7349 8.5726 25.7766C8.53396 25.8184 8.50393 25.8673 8.48421 25.9207C8.46449 25.9741 8.45548 26.0308 8.45768 26.0876C8.45989 26.1445 8.47327 26.2004 8.49706 26.252C8.52085 26.3037 8.55459 26.3502 8.59635 26.3888C9.30017 27.0046 10.0829 27.5237 10.9239 27.9326C10.1435 28.7836 9.69979 29.8896 9.67568 31.0439C9.67798 31.1561 9.72196 31.2633 9.79904 31.3448C9.87613 31.4263 9.98079 31.4761 10.0926 31.4846H23.8151C23.9272 31.4823 24.0345 31.4383 24.116 31.3613C24.1974 31.2842 24.2473 31.1795 24.2558 31.0677C24.2309 29.913 23.7863 28.8069 23.0049 27.9564C27.6125 25.7766 28.6654 21.1954 28.8871 18.5723C28.8947 18.5136 28.8896 18.4538 28.872 18.3973C28.8544 18.3407 28.8248 18.2885 28.7852 18.2444C28.7456 18.2003 28.697 18.1653 28.6426 18.1417C28.5882 18.1182 28.5294 18.1066 28.4702 18.1079H26.7021C27.1692 16.7356 26.7285 15.878 26.0661 15.205C27.0724 15.0291 28.1746 15.2006 29.3727 15.7196C29.711 15.8793 30.0781 15.9691 30.452 15.9835C30.6981 15.9851 30.9384 15.9084 31.1381 15.7645C31.2957 15.6387 31.4124 15.469 31.4735 15.2769C31.5345 15.0848 31.5372 14.8788 31.4812 14.6852L31.4917 14.6773ZM10.6178 30.5768C10.7629 29.4263 11.4754 28.4657 11.866 28.2519H22.1578C22.5273 28.4947 23.2609 29.4263 23.4087 30.5768H10.6178ZM26.5305 11.6161C26.6546 11.2229 26.776 10.9062 26.8736 10.6608C27.0715 10.2201 27.2906 10.0222 27.536 9.99843C27.7313 9.97468 27.9529 10.2439 28.0981 10.6107C28.2696 11.0778 27.5703 12.2283 25.6993 13.8196C26.0156 13.1005 26.2931 12.365 26.5305 11.6161ZM15.7505 11.3944C15.8436 11.3474 15.9479 11.3271 16.0519 11.336C16.1558 11.3448 16.2552 11.3824 16.339 11.4446C16.3881 11.4776 16.4436 11.5 16.5019 11.5104C16.5602 11.5209 16.62 11.5191 16.6776 11.5052C16.7351 11.4913 16.7892 11.4656 16.8363 11.4297C16.8834 11.3938 16.9225 11.3486 16.9512 11.2968C17.1074 11.0292 17.316 10.7959 17.5644 10.6109C17.8129 10.4259 18.0962 10.293 18.3974 10.2201C18.6445 10.169 18.8995 10.1697 19.1464 10.2223C19.3932 10.2748 19.6265 10.378 19.8313 10.5254C20.0362 10.6727 20.2083 10.861 20.3367 11.0782C20.465 11.2955 20.5469 11.5371 20.5771 11.7876C20.6048 12.0943 20.5692 12.4034 20.4725 12.6957C20.3758 12.988 20.2201 13.2574 20.015 13.4871C19.976 13.5287 19.9456 13.5776 19.9257 13.631C19.9057 13.6844 19.8966 13.7412 19.8988 13.7982C19.901 13.8552 19.9145 13.9111 19.9385 13.9628C19.9626 14.0145 19.9966 14.0609 20.0388 14.0993C20.0421 14.0993 20.0454 14.1 20.0485 14.1014C20.0516 14.1027 20.0543 14.1047 20.0566 14.1072C20.0588 14.1097 20.0605 14.1126 20.0615 14.1158C20.0626 14.119 20.0629 14.1224 20.0625 14.1257C19.4423 14.6641 18.8685 15.2538 18.3472 15.8885C18.2697 15.8327 18.1785 15.799 18.0833 15.7909C17.5419 15.8273 17.0028 15.8924 16.4683 15.9862L17.3972 14.6878C17.816 14.5505 18.2549 14.4844 18.6956 14.4925C18.7526 14.501 18.8107 14.4982 18.8666 14.4842C18.9225 14.4703 18.9751 14.4454 19.0214 14.4111C19.0678 14.3768 19.1069 14.3337 19.1365 14.2843C19.1662 14.2349 19.1858 14.1801 19.1943 14.1231C19.2028 14.0661 19.2 14.008 19.186 13.952C19.172 13.8961 19.1472 13.8435 19.1129 13.7972C19.0786 13.7509 19.0355 13.7118 18.9861 13.6821C18.9366 13.6525 18.8819 13.6328 18.8249 13.6243C18.6047 13.6006 18.3826 13.6006 18.1625 13.6243L18.9964 12.4737C19.0311 12.4296 19.0562 12.3788 19.0702 12.3244C19.0841 12.27 19.0866 12.2133 19.0774 12.158C19.0682 12.1026 19.0476 12.0497 19.0168 12.0028C18.9861 11.9558 18.9459 11.9158 18.8987 11.8853C18.7915 11.8252 18.6666 11.8044 18.5457 11.8266C18.4248 11.8488 18.3154 11.9124 18.2364 12.0067L17.4025 13.1599C17.3529 12.9426 17.2876 12.7291 17.2072 12.5212C17.1832 12.4714 17.1496 12.4268 17.1084 12.39C17.0671 12.3532 17.019 12.3249 16.9668 12.3067C16.9145 12.2886 16.8592 12.2809 16.804 12.2842C16.7488 12.2875 16.6948 12.3017 16.6451 12.326C16.5476 12.3784 16.4733 12.4655 16.4371 12.5702C16.401 12.6748 16.4055 12.7892 16.4498 12.8907C16.605 13.3063 16.688 13.7454 16.6952 14.1891L15.7637 15.4874C15.6423 14.6773 15.4206 13.9172 15.4206 13.9041C15.382 13.8004 15.3076 13.7139 15.2108 13.6602C15.1141 13.6065 15.0013 13.5891 14.8928 13.6111C14.7857 13.6448 14.6955 13.7183 14.641 13.8165C14.5865 13.9147 14.5718 14.0302 14.5999 14.1389C14.7715 14.701 15.0406 15.9862 14.9905 16.5641L14.0748 17.7886C14.0658 17.3751 14.0082 16.9641 13.9032 16.5641C13.7317 15.8305 13.5839 15.1681 13.9534 14.6298C13.988 14.5855 14.0129 14.5345 14.0267 14.48C14.0404 14.4255 14.0427 14.3688 14.0332 14.3134C14.0238 14.258 14.0029 14.2052 13.9719 14.1583C13.9409 14.1115 13.9004 14.0716 13.8531 14.0413C13.6816 13.9172 13.708 13.5504 13.8294 13.2813C14.0009 12.8406 14.3202 12.5476 14.5155 12.5714C14.6186 12.5825 14.7223 12.5565 14.808 12.4979C14.8936 12.4394 14.9555 12.3522 14.9826 12.2521C15.1193 11.8818 15.3894 11.5759 15.7399 11.3944H15.7505ZM14.9588 18.034L15.6687 17.0549C16.3146 16.8597 16.9802 16.7367 17.6532 16.6881C17.3207 17.1024 16.9776 17.5695 16.6345 18.0577H14.9667L14.9588 18.034ZM13.8901 11.1991C13.9906 11.1992 14.0899 11.2212 14.181 11.2636C14.2722 11.306 14.353 11.3677 14.4178 11.4446C14.351 11.5362 14.2935 11.6343 14.2463 11.7375C13.9029 11.8328 13.6011 12.0399 13.3887 12.326C13.2681 12.1965 13.202 12.0257 13.2039 11.8488C13.2059 11.672 13.2758 11.5027 13.3992 11.376C13.5361 11.2597 13.7105 11.1969 13.8901 11.1991V11.1991ZM12.7368 14.9227L12.9084 15.0942C12.8684 15.655 12.9265 16.2185 13.0799 16.7594C13.178 17.1189 13.2277 17.4898 13.2277 17.8625C13.2277 17.9126 13.2039 17.9865 13.2039 18.034H11.9795L11.5388 17.5933H12.4439C12.5608 17.5933 12.6729 17.5468 12.7555 17.4642C12.8382 17.3816 12.8846 17.2695 12.8846 17.1526C12.8846 17.0357 12.8382 16.9236 12.7555 16.841C12.6729 16.7583 12.5608 16.7119 12.4439 16.7119H11.5388L12.1747 16.0733C12.2156 16.0334 12.2481 15.9858 12.2702 15.9332C12.2924 15.8807 12.3038 15.8242 12.3038 15.7671C12.3038 15.7101 12.2924 15.6536 12.2702 15.601C12.2481 15.5485 12.2156 15.5009 12.1747 15.461C12.1372 15.4205 12.0917 15.3882 12.041 15.366C11.9904 15.3439 11.9358 15.3325 11.8805 15.3325C11.8253 15.3325 11.7706 15.3439 11.72 15.366C11.6693 15.3882 11.6238 15.4205 11.5863 15.461L10.9503 16.0996V15.1919C10.9417 15.0805 10.8914 14.9765 10.8094 14.9007C10.7275 14.8248 10.6199 14.7827 10.5083 14.7827C10.3966 14.7827 10.289 14.8248 10.2071 14.9007C10.1252 14.9765 10.0748 15.0805 10.0662 15.1919V16.0996L9.43026 15.461C9.34907 15.3798 9.23896 15.3342 9.12414 15.3342C9.00932 15.3342 8.89921 15.3798 8.81802 15.461C8.73684 15.5422 8.69123 15.6523 8.69123 15.7671C8.69123 15.882 8.73684 15.9921 8.81802 16.0733L9.45401 16.7119H8.54885C8.43197 16.7119 8.31988 16.7583 8.23723 16.841C8.15458 16.9236 8.10815 17.0357 8.10815 17.1526C8.10815 17.2695 8.15458 17.3816 8.23723 17.4642C8.31988 17.5468 8.43197 17.5933 8.54885 17.5933H9.45401L9.0133 18.034H7.44578C7.24951 17.3579 7.28414 16.6356 7.5442 15.9814C7.80425 15.3272 8.27491 14.7783 8.88178 14.4214C9.48865 14.0646 10.1971 13.9201 10.8953 14.0109C11.5934 14.1017 12.2414 14.4225 12.7368 14.9227V14.9227ZM17.6875 18.034C18.0552 17.5431 18.4229 17.0778 18.7906 16.638C20.3317 14.7749 21.5324 13.8697 22.4402 13.7721C23.1026 13.6982 23.8599 14.3606 24.62 14.9728C25.4539 15.6088 26.0423 16.3187 26.0661 16.8201C26.0908 17.2425 26.0062 17.6642 25.8207 18.0445L17.6875 18.034ZM30.6473 15.0203C30.6235 15.0441 30.3834 15.118 29.7659 14.8488C28.7625 14.3833 27.662 14.1652 26.5569 14.2128C26.6783 14.1152 26.7997 13.9911 26.9237 13.8935C27.7888 13.6087 28.7197 13.5921 29.5943 13.846C29.8227 13.9101 30.0338 14.0248 30.212 14.1814C30.3901 14.3381 30.5307 14.5328 30.6235 14.7511C30.6559 14.837 30.6641 14.9301 30.6473 15.0203V15.0203ZM8.21635 24.6735C8.27206 24.7652 8.29199 24.8742 8.27232 24.9796C8.25265 25.085 8.19477 25.1795 8.10976 25.2449C8.02476 25.3102 7.91861 25.342 7.81167 25.3339C7.70473 25.3259 7.60451 25.2787 7.53022 25.2013C7.38244 25.006 7.21091 24.7844 7.06577 24.5891C7.03134 24.5426 7.00678 24.4895 6.99358 24.4332C6.98038 24.3769 6.97883 24.3184 6.98903 24.2615C6.99922 24.2045 7.02094 24.1502 7.05286 24.102C7.08478 24.0537 7.12621 24.0124 7.17464 23.9808C7.22306 23.9491 7.27744 23.9276 7.33445 23.9177C7.39146 23.9078 7.44989 23.9096 7.50616 23.9231C7.56244 23.9366 7.61537 23.9614 7.66171 23.9961C7.70805 24.0307 7.74682 24.0745 7.77564 24.1246C7.93335 24.2959 8.07719 24.4795 8.20579 24.6735H8.21635ZM24.802 24.6498C24.6886 24.6519 24.5788 24.6094 24.4964 24.5315C24.414 24.4535 24.3655 24.3462 24.3613 24.2328C24.3694 24.1377 24.4032 24.0465 24.459 23.9689C24.8922 23.4602 25.2625 22.9011 25.5621 22.3038C25.5855 22.2535 25.6188 22.2083 25.6599 22.1711C25.701 22.1338 25.7491 22.1051 25.8015 22.0866C25.8538 22.0682 25.9094 22.0604 25.9648 22.0637C26.0202 22.067 26.0744 22.0813 26.1241 22.1059C26.2222 22.1578 26.297 22.2448 26.3337 22.3495C26.3703 22.4542 26.3662 22.5688 26.3221 22.6706C25.996 23.337 25.5844 23.958 25.0976 24.5178C25.0605 24.5623 25.0134 24.5974 24.9603 24.6203C24.9071 24.6432 24.8493 24.6533 24.7915 24.6498H24.802ZM15.3942 5.46474C15.5958 5.46548 15.7956 5.42596 15.9817 5.3485C16.1678 5.27105 16.3366 5.15722 16.4782 5.01368C16.6198 4.87014 16.7313 4.69979 16.8061 4.51261C16.881 4.32543 16.9178 4.12518 16.9143 3.9236C16.8979 3.52832 16.7293 3.15468 16.4438 2.88079C16.1583 2.60691 15.778 2.45398 15.3824 2.45398C14.9867 2.45398 14.6064 2.60691 14.3209 2.88079C14.0355 3.15468 13.8669 3.52832 13.8505 3.9236C13.8526 4.33215 14.016 4.72334 14.3051 5.01198C14.5942 5.30062 14.9857 5.46336 15.3942 5.46474ZM15.3942 3.26123C15.4832 3.26154 15.5711 3.27968 15.6529 3.31457C15.7347 3.34945 15.8086 3.40039 15.8704 3.46436C15.9321 3.52833 15.9804 3.60403 16.0124 3.68699C16.0444 3.76995 16.0594 3.85849 16.0566 3.94736C16.0582 4.0368 16.0413 4.12562 16.0071 4.20827C15.9729 4.29092 15.922 4.36563 15.8576 4.42777C15.7933 4.4899 15.7168 4.53812 15.633 4.56943C15.5492 4.60073 15.4598 4.61445 15.3705 4.60973C15.1948 4.60973 15.0263 4.53994 14.9021 4.41572C14.7779 4.2915 14.7081 4.12303 14.7081 3.94736C14.706 3.85666 14.7222 3.76647 14.7559 3.68224C14.7896 3.59802 14.8401 3.52151 14.9043 3.45736C14.9684 3.39321 15.0449 3.34275 15.1291 3.30904C15.2134 3.27533 15.3036 3.25906 15.3942 3.26123V3.26123ZM10.5096 7.9902C10.8149 7.9902 11.1134 7.89966 11.3673 7.73003C11.6211 7.5604 11.819 7.31929 11.9358 7.0372C12.0527 6.75511 12.0833 6.44471 12.0237 6.14525C11.9641 5.84579 11.8171 5.57071 11.6012 5.35481C11.3853 5.13891 11.1102 4.99188 10.8108 4.93231C10.5113 4.87275 10.2009 4.90332 9.9188 5.02016C9.63671 5.13701 9.39561 5.33488 9.22598 5.58875C9.05634 5.84262 8.9658 6.14109 8.9658 6.44642C8.97193 6.85395 9.13655 7.24306 9.42474 7.53126C9.71294 7.81946 10.1021 7.98407 10.5096 7.9902ZM10.5096 5.78405C10.6916 5.78405 10.8661 5.85634 10.9947 5.98501C11.1234 6.11369 11.1957 6.2882 11.1957 6.47018C11.1957 6.65215 11.1234 6.82666 10.9947 6.95534C10.8661 7.08401 10.6916 7.1563 10.5096 7.1563C10.3276 7.1563 10.1531 7.08401 10.0244 6.95534C9.89574 6.82666 9.82346 6.65215 9.82346 6.47018C9.83122 6.2907 9.90599 6.12065 10.033 5.99362C10.1601 5.86659 10.3301 5.79181 10.5096 5.78405V5.78405ZM21.63 7.52311C21.9355 7.52363 22.2342 7.43354 22.4884 7.26422C22.7427 7.09491 22.9409 6.85398 23.0582 6.57194C23.1754 6.2899 23.2064 5.97942 23.1471 5.67978C23.0878 5.38014 22.941 5.10482 22.7252 4.88866C22.5094 4.67249 22.2344 4.5252 21.9348 4.46542C21.6353 4.40564 21.3248 4.43605 21.0425 4.55282C20.7603 4.66959 20.519 4.86745 20.3493 5.12138C20.1795 5.37531 20.0889 5.67389 20.0889 5.97933C20.095 6.38641 20.2593 6.77514 20.5469 7.06326C20.8345 7.35139 21.223 7.5163 21.63 7.52311V7.52311ZM21.63 5.3196C21.7202 5.31925 21.8096 5.33676 21.893 5.37112C21.9764 5.40548 22.0522 5.456 22.116 5.51978C22.1798 5.58357 22.2303 5.65934 22.2647 5.74274C22.299 5.82614 22.3165 5.91552 22.3162 6.00572C22.322 6.09923 22.3086 6.19293 22.2768 6.28106C22.245 6.36919 22.1955 6.44987 22.1313 6.51814C22.0672 6.58641 21.9897 6.64081 21.9037 6.678C21.8177 6.71519 21.725 6.73438 21.6314 6.73438C21.5377 6.73438 21.445 6.71519 21.359 6.678C21.273 6.64081 21.1955 6.58641 21.1314 6.51814C21.0672 6.44987 21.0177 6.36919 20.9859 6.28106C20.9542 6.19293 20.9408 6.09923 20.9466 6.00572C20.9537 5.82648 21.0279 5.65645 21.1545 5.52936C21.2811 5.40227 21.4508 5.3274 21.63 5.3196Z" fill="#190D28"/>
</g>
<defs>
<filter id="filter0_d_525_96" x="0.000113726" y="-8.34465e-06" width="33.9754" height="33.9386" filterUnits="userSpaceOnUse" color-interpolation-filters="sRGB">
<feFlood flood-opacity="0" result="BackgroundImageFix"/>
<feColorMatrix in="SourceAlpha" type="matrix" values="0 0 0 0 0 0 0 0 0 0 0 0 0 0 0 0 0 0 127 0" result="hardAlpha"/>
<feOffset/>
<feGaussianBlur stdDeviation="1.22699"/>
<feComposite in2="hardAlpha" operator="out"/>
<feColorMatrix type="matrix" values="0 0 0 0 0 0 0 0 0 0 0 0 0 0 0 0 0 0 0.35 0"/>
<feBlend mode="normal" in2="BackgroundImageFix" result="effect1_dropShadow_525_96"/>
<feBlend mode="normal" in="SourceGraphic" in2="effect1_dropShadow_525_96" result="shape"/>
</filter>
</defs>
</svg>
